<?xml version="1.0" encoding="UTF-8"?>
<svg width="129px" height="24px" viewBox="0 0 129 24" version="1.1" xmlns="http://www.w3.org/2000/svg" xmlns:xlink="http://www.w3.org/1999/xlink">
    <!-- Generator: sketchtool 63.1 (101010) - https://sketch.com -->
    <title>B108A666-F4F8-480A-8169-433376D8D692</title>
    <desc>Created with sketchtool.</desc>
    <g id="Enrollment" stroke="none" stroke-width="1" fill="none" fill-rule="evenodd">
        <g id="0.1.2---Your-Information-filled-error" transform="translate(-61.000000, -16.000000)">
            <g id="Molecule/Header/enrollment">
                <g id="navigation/main-navigation/with-moving-frame/MAIN-designed-for-1600px">
                    <g id="Atom/Logo/Dark" transform="translate(61.000000, 16.000000)">
                        <g id="VW-Car-Net_Logo_Color">
                            <path d="M126.920073,6.91374545 L127.082618,6.91374545 C127.2672,6.91374545 127.423855,6.84567273 127.423855,6.66894545 C127.423855,6.54392727 127.334182,6.41825455 127.082618,6.41825455 C127.009527,6.41825455 126.959345,6.42414545 126.920073,6.43003636 L126.920073,6.91374545 Z M126.920073,7.70552727 L126.696,7.70552727 L126.696,6.276 C126.813818,6.25898182 126.925527,6.24196364 127.093527,6.24196364 C127.306255,6.24196364 127.446109,6.28734545 127.530109,6.35018182 C127.614109,6.41258182 127.658836,6.50945455 127.658836,6.64603636 C127.658836,6.83432727 127.535782,6.948 127.384582,6.9936 L127.384582,7.00516364 C127.507636,7.02785455 127.591418,7.14174545 127.619782,7.35250909 C127.653382,7.57461818 127.686764,7.66014545 127.709018,7.70552727 L127.473818,7.70552727 C127.440655,7.66014545 127.407055,7.52923636 127.378909,7.34116364 C127.345527,7.15898182 127.256291,7.09069091 127.076727,7.09069091 L126.920073,7.09069091 L126.920073,7.70552727 Z M127.155273,5.87738182 C126.601091,5.87738182 126.147709,6.36152727 126.147709,6.95934545 C126.147709,7.56894545 126.601091,8.04741818 127.160509,8.04741818 C127.720364,8.05309091 128.167855,7.56894545 128.167855,6.96523636 C128.167855,6.36152727 127.720364,5.87738182 127.160509,5.87738182 L127.155273,5.87738182 Z M127.160509,5.67818182 C127.849091,5.67818182 128.397382,6.24785455 128.397382,6.95934545 C128.397382,7.68283636 127.849091,8.24661818 127.155273,8.24661818 C126.466691,8.24661818 125.907273,7.68283636 125.907273,6.95934545 C125.907273,6.24785455 126.466691,5.67818182 127.155273,5.67818182 L127.160509,5.67818182 L127.160509,5.67818182 Z" id="Fill-9" fill="#000507"></path>
                            <path d="M36.2984727,9.00305455 C38.0266909,9.00305455 39.7546909,9.50094545 40.6922182,9.85265455 L39.9013091,12.8692364 C39.0809455,12.6058909 38.0266909,12.2544 36.7671273,12.2544 C34.6289455,12.2544 32.8420364,13.4260364 32.8420364,16.5015273 C32.8420364,19.5772364 34.5702545,20.7488727 36.7671273,20.7488727 C38.0266909,20.7488727 39.0809455,20.3971636 39.9013091,20.1336 L40.6922182,23.1506182 C39.7546909,23.5021091 38.0266909,24 36.2984727,24 C31.4947636,24 28.8,21.0709091 28.8,16.5015273 C28.8,11.9321455 31.4947636,9.00305455 36.2984727,9.00305455" id="Fill-10" fill="#14191C"></path>
                            <path d="M50.4754909,17.4682909 C47.8684364,17.4682909 46.8726545,18.1418182 46.8726545,19.1962909 C46.8726545,20.3679273 47.5464,20.8952727 48.7472727,20.8952727 C49.7722909,20.8952727 51.1488,20.5145455 51.9691636,19.9285091 L51.9691636,17.4682909 L50.4754909,17.4682909 Z M55.8353455,20.4853091 C55.8353455,20.9245091 55.8648,21.0124364 56.304,21.0124364 L57.3294545,21.0124364 L57.3294545,23.7069818 C56.7144,23.8241455 56.1285818,23.9122909 55.2789818,23.9122909 C53.7560727,23.9122909 52.9651636,23.3264727 52.4670545,22.2423273 L52.4083636,22.2423273 C51.4710545,23.0332364 49.5966545,24 47.8684364,24 C44.7050182,24 43.0939636,22.1253818 43.0939636,19.548 C43.0939636,16.4136 45.0857455,14.9199273 50.0653091,14.9199273 L51.9691636,14.9199273 L51.9691636,14.2754182 C51.9691636,12.5181818 50.4165818,12.2544 49.5674182,12.2544 C48.0148364,12.2544 46.2573818,12.6645818 44.8808727,13.2796364 L43.9435636,10.2626182 C45.4372364,9.58887273 47.5756364,9.00305455 49.7722909,9.00305455 C53.8437818,9.00305455 55.8353455,11.0827636 55.8353455,14.7148364 L55.8353455,20.4853091 L55.8353455,20.4853091 Z" id="Fill-11" fill="#14191C"></path>
                            <path d="M63.0999273,9.44247273 L63.6562909,11.1414545 L63.7149818,11.1414545 C64.2421091,10.2331636 65.4137455,9.00305455 67.2883636,9.00305455 C67.7864727,9.00305455 68.3428364,9.0912 68.6943273,9.17890909 L68.3428364,12.4887273 C67.9034182,12.4008 67.2883636,12.3715636 66.9368727,12.3715636 C65.2968,12.3715636 64.3594909,13.1330182 63.8616,13.7482909 L63.8616,23.5605818 L59.9072727,23.5605818 L59.9072727,9.44247273 L63.0999273,9.44247273" id="Fill-12" fill="#14191C"></path>
                            <polygon id="Fill-13" fill="#00B1EB" points="70.1589818 17.1165818 78.6534545 17.1165818 78.6534545 14.0997818 70.1589818 14.0997818"></polygon>
                            <path d="M85.4784,9.44247273 L86.0057455,10.8192 L86.0642182,10.8192 C86.8843636,10.0867636 88.3488,9.00305455 90.5749091,9.00305455 C93.8849455,9.00305455 95.7885818,11.2586182 95.7885818,14.6563636 L95.7885818,23.5605818 L91.8344727,23.5605818 L91.8344727,15.0663273 C91.8344727,13.2209455 91.0435636,12.2544 89.3153455,12.2544 C87.9680727,12.2544 86.8843636,12.9866182 86.2693091,13.4554909 L86.2693091,23.5605818 L82.3149818,23.5605818 L82.3149818,9.44247273 L85.4784,9.44247273" id="Fill-14" fill="#14191C"></path>
                            <path d="M108.002836,15.1837091 C108.032073,15.0370909 108.032073,14.8906909 108.032073,14.7440727 C108.032073,13.1624727 107.300291,11.8736727 105.074182,11.8736727 C103.082182,11.8736727 102.086182,13.4845091 101.998691,15.1837091 L108.002836,15.1837091 Z M101.998691,17.6439273 C102.144873,19.6357091 103.433673,20.8365818 105.5424,20.8365818 C107.182909,20.8365818 108.676582,20.4558545 110.053527,19.9579636 L110.961382,22.7991273 C109.555855,23.4728727 107.504945,24 105.2496,24 C100.358182,24 97.9856727,20.6317091 97.9856727,16.4722909 C97.9856727,12.4592727 100.446327,9.00305455 105.044727,9.00305455 C109.613891,9.00305455 111.635127,11.7857455 111.635127,15.0955636 C111.635127,16.0036364 111.517964,17.1460364 111.430255,17.6439273 L101.998691,17.6439273 L101.998691,17.6439273 Z" id="Fill-15" fill="#14191C"></path>
                            <path d="M119.8368,6.16189091 L119.8368,9.44247273 L123.878836,9.44247273 L123.878836,12.4592727 L119.8368,12.4592727 L119.8368,19.1378182 C119.8368,20.1630545 120.363927,20.7488727 121.506545,20.7488727 C122.180291,20.7488727 123.1176,20.5435636 123.790909,20.3389091 L123.790909,23.5605818 C123.205091,23.7069818 121.857818,24 120.481091,24 C117.347127,24 115.882691,22.7112 115.882691,19.8700364 L115.882691,12.4592727 L113.304873,12.4592727 L113.304873,10.3213091 L115.882691,9.44247273 L115.882691,6.16189091 L119.8368,6.16189091" id="Fill-16" fill="#14191C"></path>
                            <polyline id="Fill-17" fill="#828989" points="33.4485818 0.214690909 31.7295273 5.01381818 30.5188364 5.01381818 28.8 0.214690909 28.8 0.143127273 29.8815273 0.143127273 31.1208 3.96807273 31.1421818 3.96807273 32.3670545 0.143127273 33.4485818 0.143127273 33.4485818 0.214690909"></polyline>
                            <path d="M35.1174545,4.32610909 C35.6260364,4.32610909 35.9554909,3.98247273 35.9554909,3.28756364 C35.9554909,2.59265455 35.6260364,2.24901818 35.1174545,2.24901818 C34.6232727,2.24901818 34.2866182,2.59265455 34.2866182,3.28756364 C34.2866182,3.98247273 34.6232727,4.32610909 35.1174545,4.32610909 Z M35.1174545,5.12116364 C33.9357818,5.12116364 33.2982545,4.29054545 33.2982545,3.28756364 C33.2982545,2.2848 33.9357818,1.45396364 35.1174545,1.45396364 C36.3207273,1.45396364 36.9438545,2.2848 36.9438545,3.28756364 C36.9438545,4.29054545 36.3207273,5.12116364 35.1174545,5.12116364 L35.1174545,5.12116364 Z" id="Fill-18" fill="#828989"></path>
                            <path d="M38.6127273,0 L38.6127273,4.24014545 C38.6127273,4.34770909 38.6199273,4.36909091 38.7272727,4.36909091 L39.1069091,4.36909091 L39.1069091,5.028 C38.9565818,5.0568 38.7416727,5.07818182 38.5339636,5.07818182 C37.8750545,5.07818182 37.6457455,4.75570909 37.6457455,4.06821818 L37.6457455,0 L38.6127273,0" id="Fill-19" fill="#828989"></path>
                            <polyline id="Fill-20" fill="#828989" points="40.704 3.41650909 40.704 5.01381818 39.7370182 5.01381818 39.7370182 0 40.704 0 40.704 3.11563636 40.7181818 3.11563636 41.9286545 1.56152727 42.9818182 1.56152727 42.9818182 1.63287273 41.6709818 3.23738182 43.0461818 4.94203636 43.0461818 5.01381818 41.9502545 5.01381818 40.7181818 3.41650909 40.704 3.41650909"></polyline>
                            <path d="M43.6549091,4.09701818 C43.9915636,4.26894545 44.3853818,4.39069091 44.7652364,4.39069091 C45.1448727,4.39069091 45.3096,4.27592727 45.3096,4.05403636 C45.3096,3.84632727 45.1448727,3.76756364 44.8368,3.6888 L44.3853818,3.58123636 C43.9056,3.46669091 43.4472,3.1944 43.4472,2.56429091 C43.4472,1.88356364 43.9843636,1.45396364 44.8797818,1.45396364 C45.4025455,1.45396364 45.768,1.53992727 46.1690182,1.70465455 L45.9039273,2.39236364 C45.5960727,2.2776 45.2450182,2.18465455 44.9083636,2.18465455 C44.5431273,2.18465455 44.3853818,2.292 44.3853818,2.49970909 C44.3853818,2.70021818 44.5431273,2.772 44.8296,2.85076364 L45.2664,2.95810909 C45.8179636,3.09425455 46.248,3.38072727 46.248,3.98945455 C46.248,4.70574545 45.6748364,5.12116364 44.7938182,5.12116364 C44.1992727,5.12116364 43.7766545,4.99963636 43.3684364,4.79170909 L43.6549091,4.09701818" id="Fill-21" fill="#828989"></path>
                            <polyline id="Fill-22" fill="#828989" points="52.3786909 1.63287273 51.3473455 5.01381818 50.2944 5.01381818 49.5065455 2.52829091 49.4923636 2.52829091 48.7045091 5.01381818 47.6513455 5.01381818 46.6202182 1.63287273 46.6202182 1.56152727 47.5869818 1.56152727 48.2245091 3.95367273 48.2389091 3.95367273 48.9765818 1.56152727 50.0223273 1.56152727 50.76 3.95367273 50.7744 3.95367273 51.4119273 1.56152727 52.3786909 1.56152727 52.3786909 1.63287273"></polyline>
                            <path d="M54.5201455,3.52407273 C53.8826182,3.52407273 53.6391273,3.6888 53.6391273,3.94647273 C53.6391273,4.23294545 53.8038545,4.36189091 54.0977455,4.36189091 C54.3482182,4.36189091 54.6848727,4.26894545 54.8853818,4.1256 L54.8853818,3.52407273 L54.5201455,3.52407273 Z M55.8307636,4.26174545 C55.8307636,4.36909091 55.8381818,4.39069091 55.9455273,4.39069091 L56.1962182,4.39069091 L56.1962182,5.0496 C56.0458909,5.07818182 55.9025455,5.09978182 55.6948364,5.09978182 C55.3224,5.09978182 55.1290909,4.95643636 55.0073455,4.69134545 L54.9929455,4.69134545 C54.7638545,4.88487273 54.3054545,5.12116364 53.8826182,5.12116364 C53.1091636,5.12116364 52.7151273,4.66276364 52.7151273,4.03243636 C52.7151273,3.26618182 53.2023273,2.90072727 54.42,2.90072727 L54.8853818,2.90072727 L54.8853818,2.7432 C54.8853818,2.3136 54.5059636,2.24901818 54.2982545,2.24901818 C53.9184,2.24901818 53.4888,2.34938182 53.1521455,2.49970909 L52.9228364,1.76203636 C53.2880727,1.59709091 53.8110545,1.45396364 54.3482182,1.45396364 C55.3437818,1.45396364 55.8307636,1.96232727 55.8307636,2.85076364 L55.8307636,4.26174545 L55.8307636,4.26174545 Z" id="Fill-23" fill="#828989"></path>
                            <path d="M59.1471273,2.46370909 C58.9536,2.34938182 58.7029091,2.24901818 58.4524364,2.24901818 C57.8792727,2.24901818 57.6357818,2.65003636 57.6357818,3.26618182 C57.6357818,3.88189091 57.8792727,4.26174545 58.4524364,4.26174545 C58.7029091,4.26174545 58.9536,4.17578182 59.1471273,4.06821818 L59.1471273,2.46370909 Z M60.1141091,4.79170909 C60.1141091,5.952 59.4624,6.53956364 58.3304727,6.53956364 C57.7647273,6.53956364 57.3135273,6.38181818 56.9768727,6.20269091 L57.2561455,5.4936 C57.5428364,5.64414545 57.9006545,5.74450909 58.3304727,5.74450909 C58.8964364,5.74450909 59.1471273,5.544 59.1471273,4.97083636 L59.1471273,4.71294545 L59.1327273,4.71294545 C58.9250182,4.86327273 58.6385455,5.0568 58.1513455,5.0568 C57.1557818,5.0568 56.6474182,4.26894545 56.6474182,3.26618182 C56.6474182,2.26341818 57.1557818,1.45396364 58.1513455,1.45396364 C58.6673455,1.45396364 58.9610182,1.69745455 59.2186909,1.87658182 L59.2328727,1.87658182 L59.3620364,1.56152727 L60.1141091,1.56152727 L60.1141091,4.79170909 L60.1141091,4.79170909 Z" id="Fill-24" fill="#828989"></path>
                            <path d="M63.1368,2.96509091 C63.1437818,2.92952727 63.1437818,2.89374545 63.1437818,2.85774545 C63.1437818,2.47112727 62.9648727,2.15585455 62.4205091,2.15585455 C61.9335273,2.15585455 61.6898182,2.54989091 61.6684364,2.96509091 L63.1368,2.96509091 Z M61.6684364,3.56683636 C61.7042182,4.05403636 62.0194909,4.34770909 62.5352727,4.34770909 C62.9360727,4.34770909 63.3015273,4.25454545 63.6384,4.13258182 L63.8602909,4.82749091 C63.5164364,4.99221818 63.0150545,5.12116364 62.4634909,5.12116364 C61.2672,5.12116364 60.6870545,4.29752727 60.6870545,3.28036364 C60.6870545,2.2992 61.2888,1.45396364 62.4133091,1.45396364 C63.5308364,1.45396364 64.0250182,2.13425455 64.0250182,2.94370909 C64.0250182,3.16581818 63.9962182,3.44509091 63.9750545,3.56683636 L61.6684364,3.56683636 L61.6684364,3.56683636 Z" id="Fill-25" fill="#828989"></path>
                            <path d="M65.5075636,1.56152727 L65.6365091,1.89818182 L65.6506909,1.89818182 C65.8514182,1.71883636 66.2096727,1.45396364 66.7538182,1.45396364 C67.5632727,1.45396364 68.0288727,2.00530909 68.0288727,2.83614545 L68.0288727,5.01381818 L67.0618909,5.01381818 L67.0618909,2.93672727 C67.0618909,2.48530909 66.8683636,2.24901818 66.4457455,2.24901818 C66.1162909,2.24901818 65.8514182,2.42792727 65.7008727,2.54269091 L65.7008727,5.01381818 L64.7338909,5.01381818 L64.7338909,1.56152727 L65.5075636,1.56152727" id="Fill-26" fill="#828989"></path>
                            <path d="M12,0 C18.627417,0 24,5.372583 24,12 C24,18.627417 18.627417,24 12,24 C5.372583,24 0,18.627417 0,12 C0,5.372583 5.372583,0 12,0 Z M12.1274028,11.3409175 L12.0410911,11.3409175 C11.8458477,11.3432114 11.0264182,11.3540455 10.3082182,11.3805818 C9.48741818,11.4117818 8.90552727,11.5082182 8.48683636,11.8503273 C8.06923636,12.192 7.25258182,13.9880727 7.25258182,13.9880727 C7.00341818,14.0184 7.08981818,13.8141818 7.09941818,13.7380364 C7.09483636,13.4829818 6.95149091,13.4568 6.65629091,13.4568 C6.36021818,13.4568 6.06392727,13.6708364 5.94676364,13.9012364 C5.8296,14.1303273 6.11585455,14.2429091 6.11585455,14.2429091 L6.11585455,14.2429091 L7.07236364,14.3969455 C6.91418182,14.6875636 6.27861818,15.8188364 6.11585455,16.1338909 C5.95265455,16.4474182 6.04341818,17.1565091 6.06392727,17.6050909 C5.89047273,18.5533091 6.02378182,20.1545455 6.06392727,20.5736727 C6.10450909,20.9914909 6.4416,20.9821264 6.4416,20.9821264 L7.30930909,20.9821264 C7.74763636,20.9821264 7.80872727,20.6461091 7.80872727,20.6461091 L7.80872727,20.6461091 L7.85018182,20.1966545 C8.07381818,20.2171636 8.83963636,20.1080727 8.83963636,20.1080727 L8.83963636,20.1080727 L8.83963636,19.9817455 C9.54327273,20.2071273 12.0820364,20.0637818 12.0844364,20.0637818 C12.0857455,20.0637818 14.6253818,20.2071273 15.3290182,19.9817455 L15.3290182,19.9817455 L15.3290182,20.1080727 C15.3290182,20.1080727 16.0935273,20.2171636 16.3178182,20.1966545 L16.3178182,20.1966545 L16.3584,20.6461091 C16.3584,20.6461091 16.4203636,20.9821264 16.8595636,20.9821264 L16.8595636,20.9821264 L17.7338551,20.9820306 C17.7848745,20.9802986 18.0671405,20.9535074 18.1036364,20.5736727 C18.1442182,20.1545455 18.2773091,18.5533091 18.1036364,17.6050909 C18.1245818,17.1565091 18.216,16.4474182 18.0523636,16.1338909 C17.8887273,15.8188364 17.2533818,14.6875636 17.0956364,14.3969455 L17.0956364,14.3969455 L18.0523636,14.2429091 C18.0523636,14.2429091 18.3377455,14.1303273 18.2205818,13.9012364 C18.1036364,13.6708364 17.8075636,13.4568 17.5110545,13.4568 C17.2167273,13.4568 17.0729455,13.4829818 17.0679273,13.7380364 C17.0784,13.8141818 17.1652364,14.0184 16.9152,13.9880727 C16.9152,13.9880727 16.0992,12.192 15.6809455,11.8503273 C15.2618182,11.5082182 14.6808,11.4117818 13.8591273,11.3805818 C13.1409273,11.3540455 12.3218318,11.3432114 12.1274028,11.3409175 L12.1274028,11.3409175 Z M14.3849455,18.6861818 C14.2880727,18.8997818 14.1331636,19.2864 14.0838545,19.3540364 C14.0341091,19.4225455 13.9708364,19.5283636 13.4775273,19.5418909 C12.9263844,19.5547481 12.3815722,19.5600623 12.1731771,19.5617495 L11.9135709,19.5610474 C11.6651163,19.5587883 11.1801385,19.5533195 10.6906909,19.5418909 C10.1967273,19.5283636 10.1341091,19.4225455 10.0839273,19.3540364 C10.0346182,19.2864 9.87949091,18.8997818 9.78327273,18.6861818 C10.0894545,18.7006061 10.7649966,18.7057374 11.3053722,18.7074493 L11.3053722,18.7074493 L12.86303,18.7074493 C13.4033293,18.7057374 14.0788848,18.7006061 14.3849455,18.6861818 Z M12.0842182,16.2475636 C12.2118545,16.2475636 12.3285818,16.2888 12.4230545,16.3605818 L12.4230545,16.3605818 L15.0358861,16.3604858 C15.0681974,16.3611651 15.178161,16.3734545 15.1344,16.5122182 C15.084,16.6758545 14.7115636,17.3190545 14.7115636,17.3190545 C14.7115636,17.3190545 14.5376727,17.6050909 14.0018182,17.6050909 L14.0018182,17.6050909 L10.1655273,17.6050909 C9.62989091,17.6050909 9.456,17.3190545 9.456,17.3190545 C9.456,17.3190545 9.08465455,16.6758545 9.0336,16.5122182 C8.98232727,16.3503273 9.14094545,16.3605818 9.14094545,16.3605818 L11.7445091,16.3605818 C11.8402909,16.2888 11.9570182,16.2475636 12.0842182,16.2475636 Z M17.2060727,15.957185 L17.2769455,15.9628364 C17.568,16.0071273 17.5937455,16.2473455 17.6297455,16.4312727 C17.6642182,16.6154182 17.6642182,16.7629091 17.6642182,16.7629091 C17.6642182,16.7629091 17.5324364,16.812 17.3155636,16.8735273 C17.2400727,17.0511273 17.0635636,17.1759273 16.8595636,17.1759273 C16.7336727,17.1759273 16.6184727,17.1288 16.5309818,17.0511273 C16.2805091,17.0936727 16.0056,17.1244364 15.7267636,17.1307636 C15.5838545,17.1353455 15.3288,17.1244364 15.4405091,16.7941091 C15.5533091,16.4613818 15.6853091,16.1607273 15.6853091,16.1607273 C15.6853091,16.1607273 16.9865455,15.9159273 17.2769455,15.9628364 Z M6.88996364,15.9628364 C7.18210909,15.9159273 8.48203636,16.1607273 8.48203636,16.1607273 C8.48203636,16.1607273 8.61469091,16.4618182 8.72683636,16.7941091 C8.83985455,17.1244364 8.58436364,17.1353455 8.44058182,17.1307636 C8.1624,17.1244364 7.88683636,17.0934545 7.63723636,17.0515636 C7.54930909,17.1288 7.4352,17.1759273 7.30909091,17.1759273 C7.10378182,17.1759273 6.92858182,17.0515636 6.85352727,16.8735273 C6.63447273,16.812 6.50312727,16.7629091 6.50312727,16.7629091 C6.50312727,16.7629091 6.50312727,16.6154182 6.53934545,16.4312727 C6.57447273,16.2473455 6.59934545,16.0071273 6.88996364,15.9628364 Z M12.1001265,11.870356 C12.3287035,11.8729266 14.9471715,11.9043036 15.1865455,11.9877818 C15.3750545,12.3146182 16.1565818,13.7168727 16.2072536,14.1457044 C16.2141284,14.148607 16.3191168,14.2110789 12.636493,14.2167521 L11.2630893,14.2162227 C7.77123775,14.2077952 7.96123636,14.1456 7.96123636,14.1456 L7.96123636,14.1456 L7.98078888,14.0474813 C8.11379782,13.5346851 8.80587636,12.2928291 8.9808,11.9877818 C9.2096917,11.908098 11.605948,11.8758867 12.0226181,11.8708873 Z M11.9717204,7.99226008 L11.7266182,8.00225455 C11.3757818,8.02690909 11.0585455,8.07272727 10.7408727,8.16632727 C10.1705455,8.33454545 9.67156364,8.58829091 9.24392727,8.93367273 C9.07898182,9.06763636 8.75934545,9.32356364 8.7528,9.57207273 C8.74429091,9.85025455 8.94349091,10.0291636 9.19047273,10.0272 C9.40669091,10.0267636 9.60043636,9.79854545 9.79265455,9.64450909 C10.3409455,9.20618182 11.0949818,8.85970909 11.9995636,8.85970909 C12.9244364,8.85970909 13.6714909,9.21490909 14.2082182,9.64450909 C14.3899636,9.79025455 14.5743273,10.0350545 14.8287273,10.0272 C15.0602182,10.0217455 15.2646545,9.84654545 15.2480727,9.55374545 C15.2323636,9.28210909 14.8928727,9.05476364 14.6642182,8.87869091 C13.9346182,8.31469091 12.8775273,7.9224 11.7266182,8.00225455 Z M11.9927167,5.1833149 L11.6716364,5.1936 C11.3801455,5.20756364 11.0834182,5.22 10.8146182,5.2656 C9.47956364,5.49294545 8.53069091,5.98123636 7.63941818,6.65170909 C7.4328,6.80836364 6.76472727,7.24996364 6.76297873,7.60058182 C6.76210909,7.85454545 6.94647273,8.03149091 7.18341818,8.03847273 C7.41643636,8.04698182 7.51614545,7.90887273 7.71229091,7.72865455 C7.85432727,7.59818182 8.02712727,7.46814545 8.1864,7.34552727 C9.14858182,6.61570909 10.3754182,6.03796364 12.0181091,6.04974545 C13.0714909,6.05869091 14.0450182,6.33294545 14.7730909,6.68858182 C15.2904,6.94123636 15.8672727,7.32938182 16.2872727,7.71076364 C16.4727273,7.87898182 16.5713455,8.04698182 16.8174545,8.03847273 C17.0570182,8.03105455 17.2385455,7.87156364 17.2374594,7.60058182 C17.2357091,7.37541818 16.9996364,7.16661818 16.8355636,7.01672727 C16.3125818,6.54196364 15.5886545,6.09752727 15.0288,5.83134545 C14.1460364,5.41090909 12.9658909,5.12312727 11.6716364,5.1936 Z M12.5107636,2.41941818 L11.4890182,2.41941818 C8.77876364,2.63367273 6.90218182,3.5712 5.35898182,4.95578182 C5.20123636,5.09607273 4.82269091,5.3448 4.81156364,5.62996364 C4.80043636,5.90138182 4.99330909,6.07309091 5.21192727,6.0864 C5.51694545,6.10472727 5.77156364,5.7696 5.94305455,5.61229091 C6.54785455,5.05592727 7.32305455,4.52552727 8.07752727,4.17054545 C9.13243636,3.67658182 10.4175273,3.29541818 11.9812364,3.29541818 C13.5704727,3.29541818 14.8016727,3.66698182 15.8860364,4.17054545 C16.6649455,4.53294545 17.4150545,5.01752727 18.0582545,5.59396364 C18.2986909,5.81018182 18.6805091,6.35105455 19.0608,5.95898182 C19.1304,5.88763636 19.1899636,5.82174545 19.1893144,5.64916364 C19.1871273,5.35047273 18.8347636,5.1288 18.6416727,4.95578182 C17.5570909,3.98247273 16.2693818,3.23541818 14.6642182,2.78487273 C13.9994182,2.59636364 13.2597818,2.46589091 12.5107636,2.41941818 L12.5107636,2.41941818 Z" id="Carnet-icon" fill="#00B1EB"></path>
                        </g>
                    </g>
                </g>
            </g>
        </g>
    </g>
</svg>